# xmcd CD database file
#
# Track frame offsets:
#	150
#	33806
#	66049
#	98233
#	134447
#	165399
#	189063
#	211347
#	223816
#	244059
#	269225
#	290183
#
# Disc length: 4082 seconds
#
# Revision: 0
# Processed by: cddbd v1.5.2PL0 Copyright (c) Steve Scherf et al.
# Submitted via: CDex 1.70beta2
#
DISCID=b70ff00c
DTITLE=JAZZ - Saxophone cd3
DYEAR=1900
DGENRE=Jazz
TTITLE0=Stan Getz/Kenny Barron - Soul Eyes 1992
TTITLE1=Chris Potter - Stella By Starlight 2004
TTITLE2=Paul Desmond - Take Five 1975
TTITLE3=Cannonball Addeley - Bohemia After Dark 1959
TTITLE4=Johnny Griffin - I Mean You 1997
TTITLE5=Clifford Jordan - Lush Life 1960
TTITLE6=John Coltrane - Theme for Ernoe 1958
TTITLE7=Michel de Viliers - These Foolish Things 1954
TTITLE8=Gerry Mulligan - Line for Lyons 1964
TTITLE9=Jackie McLean - When I Fall in Love 1956
TTITLE10=Lucky Thompson - The Man I Love 1956
TTITLE11=Lester Young/Oscar Peterson - Start Dust 1954
EXTD=
EXTT0=
EXTT1=
EXTT2=
EXTT3=
EXTT4=
EXTT5=
EXTT6=
EXTT7=
EXTT8=
EXTT9=
EXTT10=
EXTT11=
PLAYORDER=
